%TF.GenerationSoftware,KiCad,Pcbnew,(5.1.10)-1*%
%TF.CreationDate,2025-01-23T21:47:58+00:00*%
%TF.ProjectId,guitar-pre-amp,67756974-6172-42d7-9072-652d616d702e,rev?*%
%TF.SameCoordinates,Original*%
%TF.FileFunction,Copper,L2,Bot*%
%TF.FilePolarity,Positive*%
%FSLAX46Y46*%
G04 Gerber Fmt 4.6, Leading zero omitted, Abs format (unit mm)*
G04 Created by KiCad (PCBNEW (5.1.10)-1) date 2025-01-23 21:47:58*
%MOMM*%
%LPD*%
G01*
G04 APERTURE LIST*
%TA.AperFunction,Profile*%
%ADD10C,0.050000*%
%TD*%
%TA.AperFunction,NonConductor*%
%ADD11C,0.500000*%
%TD*%
%TA.AperFunction,NonConductor*%
%ADD12C,0.300000*%
%TD*%
%TA.AperFunction,Profile*%
%ADD13C,0.100000*%
%TD*%
%TA.AperFunction,ComponentPad*%
%ADD14O,2.400000X1.700000*%
%TD*%
%TA.AperFunction,ComponentPad*%
%ADD15R,2.400000X1.700000*%
%TD*%
%TA.AperFunction,ComponentPad*%
%ADD16O,1.400000X1.400000*%
%TD*%
%TA.AperFunction,ComponentPad*%
%ADD17C,1.400000*%
%TD*%
%TA.AperFunction,ComponentPad*%
%ADD18C,1.600000*%
%TD*%
%TA.AperFunction,ComponentPad*%
%ADD19O,2.400000X1.600000*%
%TD*%
%TA.AperFunction,ComponentPad*%
%ADD20R,2.400000X1.600000*%
%TD*%
%TA.AperFunction,ComponentPad*%
%ADD21C,2.340000*%
%TD*%
%TA.AperFunction,Conductor*%
%ADD22C,1.500000*%
%TD*%
%TA.AperFunction,Conductor*%
%ADD23C,0.250000*%
%TD*%
%TA.AperFunction,Conductor*%
%ADD24C,1.250000*%
%TD*%
G04 APERTURE END LIST*
D10*
X166866666Y-111000000D02*
G75*
G03*
X166866666Y-111000000I-1666666J0D01*
G01*
X162700000Y-111000000D02*
X167700000Y-111000000D01*
X165200000Y-108500000D02*
X165200000Y-113500000D01*
X122666666Y-84000000D02*
G75*
G03*
X122666666Y-84000000I-1666666J0D01*
G01*
X118500000Y-84000000D02*
X123500000Y-84000000D01*
X121000000Y-81500000D02*
X121000000Y-86500000D01*
X122666666Y-111000000D02*
G75*
G03*
X122666666Y-111000000I-1666666J0D01*
G01*
X118500000Y-111000000D02*
X123500000Y-111000000D01*
X121000000Y-108500000D02*
X121000000Y-113500000D01*
D11*
X123000000Y-84000000D02*
G75*
G03*
X123000000Y-84000000I-2000000J0D01*
G01*
X123000000Y-111000000D02*
G75*
G03*
X123000000Y-111000000I-2000000J0D01*
G01*
X167200000Y-111000000D02*
G75*
G03*
X167200000Y-111000000I-2000000J0D01*
G01*
D12*
X150292857Y-107707142D02*
X149150000Y-107707142D01*
X148650000Y-106778571D02*
X148150000Y-108278571D01*
X147650000Y-106778571D01*
X147150000Y-107492857D02*
X146650000Y-107492857D01*
X146435714Y-108278571D02*
X147150000Y-108278571D01*
X147150000Y-106778571D01*
X146435714Y-106778571D01*
D13*
X168200000Y-80400000D02*
X168200000Y-114000000D01*
X117600000Y-80400000D02*
X168200000Y-80400000D01*
X117600000Y-114000000D02*
X117600000Y-80400000D01*
X168200000Y-114000000D02*
X117600000Y-114000000D01*
D14*
%TO.P,pwr,3*%
%TO.N,GND*%
X162200000Y-91080000D03*
%TO.P,pwr,2*%
%TO.N,N/C*%
X162200000Y-88540000D03*
D15*
%TO.P,pwr,1*%
X162200000Y-86000000D03*
%TD*%
D14*
%TO.P,Output,2*%
%TO.N,GND*%
X162350000Y-98740000D03*
D15*
%TO.P,Output,1*%
%TO.N,Net-(J2-Pad1)*%
X162350000Y-96200000D03*
%TD*%
D14*
%TO.P,Input,2*%
%TO.N,GND*%
X162350000Y-106540000D03*
D15*
%TO.P,Input,1*%
%TO.N,Net-(J1-Pad1)*%
X162350000Y-104000000D03*
%TD*%
D16*
%TO.P,R3,2*%
%TO.N,Net-(J2-Pad1)*%
X124120000Y-96600000D03*
D17*
%TO.P,R3,1*%
%TO.N,Net-(R3-Pad1)*%
X129200000Y-96600000D03*
%TD*%
D18*
%TO.P,R1,1*%
%TO.N,Net-(J1-Pad1)*%
X124000000Y-100400000D03*
%TO.P,R1,2*%
%TO.N,Net-(C1-Pad1)*%
X129080000Y-100400000D03*
%TD*%
D19*
%TO.P,U1,8*%
%TO.N,N/C*%
X150595001Y-85975001D03*
%TO.P,U1,4*%
X142975001Y-93595001D03*
%TO.P,U1,7*%
X150595001Y-88515001D03*
%TO.P,U1,3*%
%TO.N,Net-(C1-Pad2)*%
X142975001Y-91055001D03*
%TO.P,U1,6*%
%TO.N,N/C*%
X150595001Y-91055001D03*
%TO.P,U1,2*%
%TO.N,Net-(R3-Pad1)*%
X142975001Y-88515001D03*
%TO.P,U1,5*%
%TO.N,N/C*%
X150595001Y-93595001D03*
D20*
%TO.P,U1,1*%
%TO.N,Net-(J2-Pad1)*%
X142975001Y-85975001D03*
%TD*%
D18*
%TO.P,C1,1*%
%TO.N,Net-(C1-Pad1)*%
X137200000Y-93800000D03*
%TO.P,C1,2*%
%TO.N,Net-(C1-Pad2)*%
X137200000Y-91300000D03*
%TD*%
%TO.P,C2,2*%
%TO.N,GND*%
X145000000Y-101500000D03*
%TO.P,C2,1*%
%TO.N,Net-(C1-Pad2)*%
X145000000Y-99000000D03*
%TD*%
%TO.P,C3,1*%
%TO.N,Net-(C3-Pad1)*%
X140800000Y-108200000D03*
%TO.P,C3,2*%
%TO.N,GND*%
X143300000Y-108200000D03*
%TD*%
D16*
%TO.P,R2,2*%
%TO.N,GND*%
X140000000Y-101480000D03*
D17*
%TO.P,R2,1*%
%TO.N,Net-(C1-Pad2)*%
X140000000Y-96400000D03*
%TD*%
D16*
%TO.P,R4,2*%
%TO.N,Net-(C3-Pad1)*%
X134200000Y-101480000D03*
D17*
%TO.P,R4,1*%
%TO.N,Net-(R4-Pad1)*%
X134200000Y-96400000D03*
%TD*%
D21*
%TO.P,RV1,3*%
%TO.N,Net-(R4-Pad1)*%
X134200000Y-87200000D03*
%TO.P,RV1,2*%
%TO.N,Net-(R3-Pad1)*%
X129200000Y-87200000D03*
%TO.P,RV1,1*%
%TO.N,Net-(J2-Pad1)*%
X124200000Y-87200000D03*
%TD*%
D22*
%TO.N,*%
X142975001Y-93595001D02*
X145580000Y-96200000D01*
D23*
X162175001Y-85975001D02*
X162200000Y-86000000D01*
D22*
X150595001Y-85975001D02*
X162175001Y-85975001D01*
X162200000Y-88540000D02*
X156460000Y-88540000D01*
X145580000Y-96200000D02*
X154200000Y-96200000D01*
D23*
X154200000Y-96200000D02*
X154200000Y-95820705D01*
D22*
X154200000Y-95820705D02*
X154200000Y-91000000D01*
X154200000Y-91000000D02*
X156600000Y-88600000D01*
D23*
X156600000Y-88600000D02*
X156800000Y-88600000D01*
D22*
%TO.N,Net-(C1-Pad2)*%
X140000000Y-96600000D02*
X140000000Y-91000000D01*
X140055001Y-91055001D02*
X142975001Y-91055001D01*
D23*
X139200000Y-93600000D02*
X139255001Y-93655001D01*
X140355001Y-91055001D02*
X142975001Y-91055001D01*
D22*
X142600000Y-99000000D02*
X140000000Y-96400000D01*
X145000000Y-99000000D02*
X142600000Y-99000000D01*
D23*
X137444999Y-91055001D02*
X137200000Y-91300000D01*
D22*
X142975001Y-91055001D02*
X137444999Y-91055001D01*
D23*
%TO.N,Net-(R3-Pad1)*%
X142860000Y-88400000D02*
X142975001Y-88515001D01*
D22*
X129200000Y-96600000D02*
X129200000Y-87200000D01*
X131800000Y-84600000D02*
X129200000Y-87200000D01*
X136200000Y-84600000D02*
X131800000Y-84600000D01*
X140115001Y-88515001D02*
X136200000Y-84600000D01*
X142975001Y-88515001D02*
X140115001Y-88515001D01*
D23*
%TO.N,Net-(J2-Pad1)*%
X143000000Y-85950002D02*
X142975001Y-85975001D01*
D22*
X143000000Y-82400000D02*
X143000000Y-85950002D01*
D23*
X143200000Y-82400000D02*
X143000000Y-82400000D01*
X124120000Y-86080000D02*
X124200000Y-86000000D01*
D22*
X165200000Y-82400000D02*
X165200000Y-93400000D01*
X165200000Y-82400000D02*
X143200000Y-82400000D01*
X165150000Y-93400000D02*
X162350000Y-96200000D01*
X165200000Y-93400000D02*
X165150000Y-93400000D01*
D23*
X124200000Y-96520000D02*
X124120000Y-96600000D01*
D22*
X124200000Y-87200000D02*
X124200000Y-96520000D01*
X143200000Y-82400000D02*
X129400000Y-82400000D01*
D23*
X124600000Y-87200000D02*
X124200000Y-87200000D01*
D22*
X129400000Y-82400000D02*
X124600000Y-87200000D01*
D24*
%TO.N,Net-(C1-Pad1)*%
X129080000Y-100400000D02*
X130400000Y-100400000D01*
X130400000Y-100400000D02*
X132000000Y-98800000D01*
X132000000Y-98800000D02*
X135400000Y-98800000D01*
D22*
X137200000Y-93800000D02*
X137200000Y-97800000D01*
X136200000Y-98800000D02*
X135400000Y-98800000D01*
X137200000Y-97800000D02*
X136200000Y-98800000D01*
%TO.N,GND*%
X162200000Y-91080000D02*
X160520000Y-91080000D01*
D23*
X144980000Y-101480000D02*
X145000000Y-101500000D01*
D22*
X140000000Y-101480000D02*
X144980000Y-101480000D01*
X145000000Y-106500000D02*
X143300000Y-108200000D01*
X145000000Y-101500000D02*
X145000000Y-106500000D01*
X158130000Y-97470000D02*
X158130000Y-94870000D01*
D23*
X157870000Y-97470000D02*
X158130000Y-97470000D01*
X158130000Y-97470000D02*
X158330000Y-97470000D01*
D22*
X158130000Y-94870000D02*
X158130000Y-93410998D01*
D23*
X158329501Y-93270499D02*
X158270499Y-93270499D01*
D22*
X160520000Y-91080000D02*
X158329501Y-93270499D01*
D23*
X158270499Y-93270499D02*
X159285997Y-92255001D01*
X158130000Y-93410998D02*
X158270499Y-93270499D01*
X158130000Y-97470000D02*
X158130000Y-97730000D01*
D22*
X159140000Y-98740000D02*
X162350000Y-98740000D01*
X158130000Y-97730000D02*
X159140000Y-98740000D01*
X162350000Y-98740000D02*
X165260000Y-98740000D01*
X162350000Y-106540000D02*
X165060000Y-106540000D01*
X165260000Y-106340000D02*
X165260000Y-98740000D01*
X165060000Y-106540000D02*
X165260000Y-106340000D01*
D23*
X145000000Y-101500000D02*
X148900000Y-101500000D01*
X148900000Y-101500000D02*
X149030000Y-101370000D01*
D22*
X158130000Y-97730000D02*
X156870000Y-97730000D01*
X153100000Y-101500000D02*
X145000000Y-101500000D01*
X156870000Y-97730000D02*
X153100000Y-101500000D01*
D23*
%TO.N,Net-(C3-Pad1)*%
X134200000Y-101600000D02*
X134200000Y-101480000D01*
D22*
X140800000Y-108200000D02*
X134200000Y-101600000D01*
%TO.N,Net-(J1-Pad1)*%
X162350000Y-104000000D02*
X160200000Y-104000000D01*
X158000000Y-104000000D02*
X149800000Y-112200000D01*
X160200000Y-104000000D02*
X158000000Y-104000000D01*
X124000000Y-102600000D02*
X133600000Y-112200000D01*
X124000000Y-100400000D02*
X124000000Y-102600000D01*
X133600000Y-112200000D02*
X149800000Y-112200000D01*
%TO.N,Net-(R4-Pad1)*%
X134200000Y-96400000D02*
X134200000Y-87200000D01*
%TD*%
M02*
