M48
; DRILL file {KiCad (5.1.10)-1} date 01/24/25 21:16:37
; FORMAT={-:-/ absolute / metric / decimal}
; #@! TF.CreationDate,2025-01-24T21:16:37+00:00
; #@! TF.GenerationSoftware,Kicad,Pcbnew,(5.1.10)-1
; #@! TF.FileFunction,Plated,1,2,PTH
FMAT,2
METRIC
T1C0.700
T2C0.800
T3C1.000
T4C1.300
%
G90
G05
T1
X124.0Y-100.4
X124.12Y-96.6
X129.08Y-100.4
X129.2Y-96.6
X134.2Y-96.4
X134.2Y-101.48
X140.0Y-96.4
X140.0Y-101.48
T2
X137.2Y-91.3
X137.2Y-93.8
X140.8Y-108.2
X142.975Y-85.975
X142.975Y-88.515
X142.975Y-91.055
X142.975Y-93.595
X143.3Y-108.2
X145.0Y-99.0
X145.0Y-101.5
X150.595Y-85.975
X150.595Y-88.515
X150.595Y-91.055
X150.595Y-93.595
T3
X162.2Y-86.0
X162.2Y-88.54
X162.2Y-91.08
X162.35Y-96.2
X162.35Y-98.74
X162.35Y-104.0
X162.35Y-106.54
T4
X124.2Y-87.2
X129.2Y-87.2
X134.2Y-87.2
T0
M30
